<svg version="1.1" id="Layer_1" xmlns="http://www.w3.org/2000/svg" xmlns:xlink="http://www.w3.org/1999/xlink" x="0px" y="0px"
	 width="100%" viewBox="0 0 512 512" enable-background="new 0 0 512 512" xml:space="preserve">
<path fill="#000000" opacity="0.000000" stroke="none" 
	d="
M1.000001,247.000000 
	C1.000000,165.035187 1.000000,83.070358 1.000000,1.052771 
	C171.558258,1.052771 342.116516,1.052771 513.000000,1.052771 
	C513.000000,85.355064 513.000000,169.710556 512.755127,254.833862 
	C512.042603,255.386887 511.575043,255.172089 511.050995,254.606979 
	C505.368530,248.157364 499.742554,242.058090 493.961853,235.659760 
	C486.907837,228.557861 480.008636,221.755035 472.952637,214.654999 
	C465.568634,207.224014 458.341370,200.090225 450.953735,192.660919 
	C443.898804,185.560715 437.004211,178.756012 429.946289,171.657959 
	C423.330292,164.893005 416.915222,158.383362 410.414825,151.960022 
	C403.219238,144.849625 389.000061,143.634659 380.405304,149.046692 
	C372.216583,154.203049 368.032471,161.603821 367.160767,171.471832 
	C368.112488,182.613693 373.629822,190.687363 382.119446,197.400375 
	C388.472992,203.803528 394.664154,209.920334 401.023254,216.330048 
	C408.422913,223.765518 415.654694,230.908066 423.039612,238.349854 
	C429.779938,245.135300 436.367157,251.621475 443.104706,258.400909 
	C445.601410,260.737183 447.947723,262.780243 450.307587,264.835083 
	C448.454987,267.007355 447.189972,268.490601 445.627960,270.121124 
	C441.183563,274.499115 437.036194,278.729858 432.591858,283.104767 
	C429.175537,286.448364 426.056152,289.647797 422.637878,293.002472 
	C419.544830,296.071320 416.750732,298.984924 413.655334,302.047852 
	C407.553528,308.091766 401.752991,313.986359 395.651886,320.032593 
	C390.865143,324.770325 386.379028,329.356415 381.589783,334.078552 
	C377.489105,339.129608 373.691528,344.044647 369.574036,349.176727 
	C367.720612,354.516510 366.761566,359.679260 368.113922,365.380646 
	C373.916931,385.501923 393.686798,389.582489 406.594910,381.821167 
	C413.199036,377.850281 418.340088,371.446106 424.444763,365.999176 
	C430.128479,360.237854 435.509796,354.619019 441.025818,348.688812 
	C445.103821,344.496857 449.047119,340.616272 453.309082,336.665802 
	C457.791901,332.077515 461.956085,327.559082 466.420044,322.901001 
	C472.477112,317.093811 478.234344,311.426270 484.311646,305.691711 
	C487.791290,302.095673 490.950867,298.566650 494.408875,294.895569 
	C497.822632,291.830048 500.937988,288.906677 504.358459,285.838043 
	C506.109436,283.795227 507.540009,281.885773 509.005798,280.003754 
	C510.317047,278.320129 511.667084,276.666748 513.000000,275.000000 
	C513.000000,354.298737 513.000000,433.597504 513.000000,512.948120 
	C342.442322,512.948120 171.884644,512.948120 1.000000,512.948120 
	C1.000000,431.311615 1.000000,349.622772 1.344277,267.310059 
	C6.086555,271.806732 10.484554,276.927338 15.040810,282.344727 
	C22.093859,289.440674 28.988651,296.239868 36.037537,303.338684 
	C42.752075,310.104431 49.312527,316.570526 56.025803,323.337677 
	C63.411911,330.772156 70.645187,337.905579 78.030266,345.340302 
	C86.148216,353.628143 94.074814,361.654663 102.091164,369.590546 
	C110.853928,378.265289 124.665405,379.478546 134.917770,372.648651 
	C144.576187,366.214325 147.413940,357.029541 145.905579,345.628540 
	C145.950424,344.750366 146.027924,344.224915 145.886917,343.766663 
	C142.910828,334.094452 134.787384,328.608032 127.963165,321.642700 
	C120.913124,314.542236 114.008171,307.745178 106.957611,300.645203 
	C99.914742,293.545929 93.017487,286.749603 85.970963,279.651184 
	C78.565460,272.194946 71.309227,265.040710 64.060928,257.543549 
	C68.421936,252.482880 72.775024,247.765167 77.421661,242.897705 
	C86.846901,233.512375 95.978577,224.276764 105.403717,214.890350 
	C110.154839,210.196045 114.612511,205.652573 119.364029,200.948639 
	C126.379089,194.080429 133.399506,187.637787 139.685181,180.544113 
	C142.491913,177.376602 143.822189,172.900818 145.882721,168.612442 
	C145.559174,163.667664 145.175415,159.129227 144.761871,154.218964 
	C139.870941,139.450821 122.845642,132.747360 109.777168,139.516434 
	C103.396614,142.821365 98.506386,149.003510 92.656410,154.059113 
	C87.899208,158.793243 83.427177,163.351578 78.666031,168.078430 
	C68.231216,178.458878 58.085518,188.670792 47.650223,199.051544 
	C42.891373,203.780014 38.422119,208.339645 33.660034,213.062622 
	C24.230047,222.444366 15.092886,231.662781 5.670394,241.087326 
	C3.923376,243.195633 2.461689,245.097824 1.000001,247.000000 
M210.302353,296.355743 
	C208.589401,300.572510 206.876434,304.789276 204.835327,309.646423 
	C202.944901,313.767426 201.054474,317.888428 198.830658,322.661743 
	C196.516083,328.092896 194.201492,333.524078 191.287979,339.327148 
	C188.489212,345.870178 185.690445,352.413177 182.287491,359.322510 
	C177.154816,370.865845 172.022141,382.409180 166.272476,394.325134 
	C163.198578,401.156067 160.078903,407.966888 157.064072,414.823792 
	C154.245010,421.235443 152.896667,427.824005 155.013123,434.772156 
	C157.711975,443.632233 163.130249,450.602600 172.187790,452.418427 
	C181.139648,454.213074 190.923523,454.877777 197.780670,446.590668 
	C201.249084,442.398956 204.259079,437.644104 206.577789,432.720703 
	C212.594986,419.944122 218.114365,406.933136 224.170334,393.360596 
	C229.154068,382.254272 234.137802,371.147949 239.745285,359.678894 
	C242.780975,352.788177 245.816666,345.897461 249.144562,338.332703 
	C251.399948,332.993561 253.655319,327.654449 256.459106,321.966034 
	C258.347626,317.655853 260.236145,313.345703 262.720825,308.634644 
	C264.160858,305.104492 265.600922,301.574371 267.620483,297.618286 
	C269.116425,293.762207 270.612335,289.906158 272.695679,285.671936 
	C274.742096,281.116913 276.788513,276.561890 279.180389,271.365509 
	C281.141998,266.934143 283.103607,262.502777 285.643066,257.641205 
	C289.129974,249.439957 292.616882,241.238724 296.679291,232.638138 
	C298.822449,227.785339 300.965607,222.932541 303.676849,217.641953 
	C307.393707,209.098267 311.110596,200.554596 315.184448,191.375885 
	C317.147217,186.616913 319.110016,181.857956 321.623566,176.669724 
	C325.030212,169.118622 328.436829,161.567505 332.198120,153.389542 
	C336.840637,142.932831 341.483154,132.476105 346.642029,121.566109 
	C350.437866,112.746246 354.233704,103.926392 358.403778,94.829826 
	C358.648132,94.617958 358.797363,94.352615 358.876068,93.531471 
	C358.867340,93.364052 358.858612,93.196632 359.081024,92.227280 
	C359.032806,88.001198 359.753113,83.588882 358.783142,79.586166 
	C356.461914,70.007256 350.169220,63.736847 340.549347,61.153862 
	C331.131866,58.625233 322.864380,60.895691 315.875305,67.653549 
	C308.954071,74.345779 306.510773,83.466446 302.403717,92.440331 
	C298.235718,101.944397 294.067719,111.448456 289.390839,121.423523 
	C284.543030,132.262756 279.695221,143.101974 274.337006,154.425720 
	C271.277069,161.622482 268.217133,168.819244 264.819733,176.642166 
	C262.603943,181.433975 260.388153,186.225784 257.828400,191.654099 
	C254.200821,199.733551 250.573212,207.813004 246.380997,216.343384 
	C244.220398,221.548660 242.059799,226.753952 239.331146,232.370743 
	C235.870193,240.210861 232.409225,248.050995 228.362198,256.321289 
	C226.200729,261.534088 224.039261,266.746887 221.300095,272.357697 
	C219.489380,276.552155 217.678665,280.746613 215.275818,285.351074 
	C213.816193,288.883057 212.356567,292.415039 210.302353,296.355743 
z"/>
<path fill="#583098" opacity="1.000000" stroke="none" 
	d="
M14.882556,282.047913 
	C10.484554,276.927338 6.086555,271.806732 1.344277,266.843079 
	C1.000000,264.629425 1.000000,262.258881 1.468657,259.443420 
	C20.386202,258.998077 38.835270,259.035645 57.283745,258.948151 
	C59.541790,258.937439 61.796658,258.256744 64.052994,257.886505 
	C71.309227,265.040710 78.565460,272.194946 85.555618,279.746582 
	C82.498634,280.428070 79.708702,280.946625 76.916679,280.958130 
	C58.843658,281.032623 40.769978,280.954651 22.697081,281.043579 
	C20.090656,281.056396 17.487322,281.697540 14.882556,282.047913 
z"/>
<path fill="#543090" opacity="1.000000" stroke="none" 
	d="
M64.060928,257.543549 
	C61.796658,258.256744 59.541790,258.937439 57.283745,258.948151 
	C38.835270,259.035645 20.386202,258.998077 1.468657,258.999268 
	C1.000000,255.307098 1.000000,251.614182 1.000001,247.460632 
	C2.461689,245.097824 3.923376,243.195633 6.030366,241.298782 
	C8.799883,241.534378 10.923553,241.958633 13.048395,241.964569 
	C31.801054,242.017090 50.554111,241.954666 69.306503,242.042160 
	C71.915215,242.054321 74.520981,242.696793 77.128113,243.047455 
	C72.775024,247.765167 68.421936,252.482880 64.060928,257.543549 
z"/>
<path fill="#583098" opacity="1.000000" stroke="none" 
	d="
M445.924988,269.973877 
	C447.189972,268.490601 448.454987,267.007355 450.307587,264.835083 
	C447.947723,262.780243 445.601410,260.737183 443.194153,258.018799 
	C445.264648,256.562775 447.390106,255.123062 449.528351,255.103729 
	C470.053497,254.918045 490.580811,254.972000 511.107483,254.957306 
	C511.575043,255.172089 512.042603,255.386887 512.755127,255.300842 
	C513.000000,260.022095 513.000000,265.044189 512.531372,270.533142 
	C490.016785,270.657959 467.970886,270.315918 445.924988,269.973877 
z"/>
<path fill="#5C319F" opacity="1.000000" stroke="none" 
	d="
M445.627960,270.121124 
	C467.970886,270.315918 490.016785,270.657959 512.531372,271.000000 
	C513.000000,272.066681 513.000000,273.133331 513.000000,274.600037 
	C511.667084,276.666748 510.317047,278.320129 509.005798,280.003754 
	C507.540009,281.885773 506.109436,283.795227 504.141998,285.519714 
	C501.589691,284.898102 499.561005,284.071045 497.527924,284.060028 
	C478.935272,283.959198 460.341644,284.045532 441.748932,283.953339 
	C438.794006,283.938721 435.842102,283.307007 432.888824,282.960632 
	C437.036194,278.729858 441.183563,274.499115 445.627960,270.121124 
z"/>
<path fill="#7F37DE" opacity="1.000000" stroke="none" 
	d="
M223.832428,394.015686 
	C218.114365,406.933136 212.594986,419.944122 206.577789,432.720703 
	C204.259079,437.644104 201.249084,442.398956 197.780670,446.590668 
	C190.923523,454.877777 181.139648,454.213074 172.187790,452.418427 
	C163.130249,450.602600 157.711975,443.632233 155.013123,434.772156 
	C152.896667,427.824005 154.245010,421.235443 157.064072,414.823792 
	C160.078903,407.966888 163.198578,401.156067 167.056595,394.147766 
	C186.504623,393.985504 205.168518,394.000580 223.832428,394.015686 
z"/>
<path fill="#432D73" opacity="1.000000" stroke="none" 
	d="
M145.822540,169.018799 
	C143.822189,172.900818 142.491913,177.376602 139.685181,180.544113 
	C133.399506,187.637787 126.379089,194.080429 119.000809,200.738586 
	C116.218964,200.457581 114.094719,200.031143 111.969330,200.025314 
	C92.879723,199.972931 73.789742,200.031235 54.700382,199.945282 
	C52.445309,199.935135 50.193264,199.253204 47.939812,198.882690 
	C58.085518,188.670792 68.231216,178.458878 79.007851,168.281204 
	C83.411156,168.213974 87.185669,167.975632 90.955559,168.034286 
	C109.245232,168.318741 127.533669,168.682877 145.822540,169.018799 
z"/>
<path fill="#4E2F87" opacity="1.000000" stroke="none" 
	d="
M77.421661,242.897720 
	C74.520981,242.696793 71.915215,242.054321 69.306503,242.042160 
	C50.554111,241.954666 31.801054,242.017090 13.048395,241.964569 
	C10.923553,241.958633 8.799883,241.534378 6.315697,241.092651 
	C15.092886,231.662781 24.230047,222.444366 34.021942,213.271164 
	C36.800777,213.544571 38.924339,213.965042 41.049053,213.970932 
	C59.795494,214.022980 78.542328,213.961182 97.288513,214.047668 
	C99.897232,214.059692 102.503082,214.694611 105.110260,215.041168 
	C95.978577,224.276764 86.846901,233.512375 77.421661,242.897720 
z"/>
<path fill="#7434CB" opacity="1.000000" stroke="none" 
	d="
M224.001373,393.688141 
	C205.168518,394.000580 186.504623,393.985504 167.365082,393.961456 
	C172.022141,382.409180 177.154816,370.865845 183.065109,359.148132 
	C198.811111,358.983368 213.779984,358.930084 228.747482,359.049500 
	C232.207916,359.077118 235.663635,359.695251 239.121521,360.041626 
	C234.137802,371.147949 229.154068,382.254272 224.001373,393.688141 
z"/>
<path fill="#382B5E" opacity="1.000000" stroke="none" 
	d="
M346.125671,122.019394 
	C341.483154,132.476105 336.840637,142.932831 331.614258,153.651733 
	C327.899902,153.608368 324.765503,153.006241 321.639557,153.047348 
	C306.040924,153.252487 290.444580,153.626572 274.847412,153.941208 
	C279.695221,143.101974 284.543030,132.262756 290.121521,121.198479 
	C305.152740,120.982903 319.453918,120.918617 333.753357,121.048126 
	C337.880066,121.085495 342.001709,121.680206 346.125671,122.019394 
z"/>
<path fill="#6933B6" opacity="1.000000" stroke="none" 
	d="
M77.878464,345.039032 
	C70.645187,337.905579 63.411911,330.772156 56.502647,323.330444 
	C77.971687,323.014221 99.116852,323.042572 120.261520,322.952026 
	C122.878487,322.940826 125.492737,322.296844 128.108246,321.946075 
	C134.787384,328.608032 142.910828,334.094452 145.886917,343.766663 
	C146.027924,344.224915 145.950424,344.750366 145.447388,345.625427 
	C122.572891,345.683899 100.225677,345.361450 77.878464,345.039032 
z"/>
<path fill="#30294F" opacity="1.000000" stroke="none" 
	d="
M346.383850,121.792755 
	C342.001709,121.680206 337.880066,121.085495 333.753357,121.048126 
	C319.453918,120.918617 305.152740,120.982903 290.375977,120.962975 
	C294.067719,111.448456 298.235718,101.944397 303.126099,92.203506 
	C311.789459,91.976471 319.733093,91.860954 327.670837,92.027122 
	C338.066315,92.244759 348.457092,92.684822 358.849915,93.029221 
	C358.858612,93.196632 358.867340,93.364052 358.711548,93.948303 
	C358.347778,94.593636 358.175293,94.840759 358.029541,95.106522 
	C354.233704,103.926392 350.437866,112.746246 346.383850,121.792755 
z"/>
<path fill="#4E2F87" opacity="1.000000" stroke="none" 
	d="
M422.886475,238.050613 
	C415.654694,230.908066 408.422913,223.765518 401.451294,216.281311 
	C405.017029,215.626511 408.321411,215.057922 411.628418,215.041962 
	C432.121735,214.942993 452.615662,214.968201 473.109406,214.952194 
	C480.008636,221.755035 486.907837,228.557861 493.485443,235.667633 
	C473.959595,235.983398 454.753967,235.872955 435.552185,236.093994 
	C431.323334,236.142654 427.108032,237.367416 422.886475,238.050613 
z"/>
<path fill="#432D73" opacity="1.000000" stroke="none" 
	d="
M430.109619,171.951309 
	C437.004211,178.756012 443.898804,185.560715 450.538574,192.757095 
	C447.483429,193.432388 444.684143,193.949661 441.882660,193.961594 
	C424.082184,194.037430 406.279755,193.894791 388.482330,194.140060 
	C386.293976,194.170227 384.131531,196.076920 381.957092,197.114014 
	C373.629822,190.687363 368.112488,182.613693 367.538391,171.613281 
	C369.721832,171.573318 371.524445,171.967300 373.327637,171.970123 
	C392.254913,171.999802 411.182281,171.966919 430.109619,171.951309 
z"/>
<path fill="#5F32A5" opacity="1.000000" stroke="none" 
	d="
M15.040812,282.344727 
	C17.487322,281.697540 20.090656,281.056396 22.697081,281.043579 
	C40.769978,280.954651 58.843658,281.032623 76.916679,280.958130 
	C79.708702,280.946625 82.498634,280.428070 85.704880,280.048645 
	C93.017487,286.749603 99.914742,293.545929 106.563461,300.800049 
	C104.022942,301.505035 101.731621,301.959290 99.438858,301.966705 
	C81.203133,302.025757 62.966896,301.953918 44.731445,302.046783 
	C41.780506,302.061798 38.832699,302.692780 35.883442,303.039032 
	C28.988651,296.239868 22.093859,289.440674 15.040812,282.344727 
z"/>
<path fill="#492E7D" opacity="1.000000" stroke="none" 
	d="
M382.119446,197.400360 
	C384.131531,196.076920 386.293976,194.170227 388.482330,194.140060 
	C406.279755,193.894791 424.082184,194.037430 441.882660,193.961594 
	C444.684143,193.949661 447.483429,193.432388 450.698914,193.052612 
	C458.341370,200.090225 465.568634,207.224014 472.952637,214.654999 
	C452.615662,214.968201 432.121735,214.942993 411.628418,215.041962 
	C408.321411,215.057922 405.017029,215.626511 401.283386,215.988403 
	C394.664154,209.920334 388.472992,203.803528 382.119446,197.400360 
z"/>
<path fill="#6433AF" opacity="1.000000" stroke="none" 
	d="
M36.037537,303.338684 
	C38.832699,302.692780 41.780506,302.061798 44.731445,302.046783 
	C62.966896,301.953918 81.203133,302.025757 99.438858,301.966705 
	C101.731621,301.959290 104.022942,301.505035 106.709076,301.102966 
	C114.008171,307.745178 120.913124,314.542236 127.963165,321.642700 
	C125.492737,322.296844 122.878487,322.940826 120.261520,322.952026 
	C99.116852,323.042572 77.971687,323.014221 56.349823,323.029419 
	C49.312527,316.570526 42.752075,310.104431 36.037537,303.338684 
z"/>
<path fill="#492E7D" opacity="1.000000" stroke="none" 
	d="
M246.945618,215.892456 
	C250.573212,207.813004 254.200821,199.733551 258.457275,191.332901 
	C266.729156,191.008621 274.374725,190.879898 282.014648,191.032440 
	C292.954407,191.250870 303.890045,191.674744 314.827454,192.010895 
	C311.110596,200.554596 307.393707,209.098267 302.981049,217.755249 
	C299.665161,217.578644 297.046570,217.054504 294.424774,217.038116 
	C280.847076,216.953293 267.268219,217.048355 253.690750,216.948349 
	C251.439896,216.931763 249.193863,216.260941 246.945618,215.892456 
z"/>
<path fill="#7035C4" opacity="1.000000" stroke="none" 
	d="
M78.030266,345.340302 
	C100.225677,345.361450 122.572891,345.683899 145.378281,346.009399 
	C147.413940,357.029541 144.576187,366.214325 134.917770,372.648651 
	C124.665405,379.478546 110.853928,378.265289 102.091164,369.590546 
	C94.074814,361.654663 86.148216,353.628143 78.030266,345.340302 
z"/>
<path fill="#543090" opacity="1.000000" stroke="none" 
	d="
M228.948273,255.891113 
	C232.409225,248.050995 235.870193,240.210861 240.090469,232.173767 
	C256.819275,231.985977 272.789001,231.951691 288.757935,232.050293 
	C291.208496,232.065414 293.655273,232.693100 296.103821,233.037491 
	C292.616882,241.238724 289.129974,249.439957 284.926208,257.822571 
	C279.606781,257.668854 275.006989,257.099091 270.401093,257.044769 
	C258.664062,256.906372 246.923782,257.051605 235.186005,256.948181 
	C233.103806,256.929840 231.027374,256.260071 228.948273,255.891113 
z"/>
<path fill="#27273F" opacity="1.000000" stroke="none" 
	d="
M358.965454,92.628250 
	C348.457092,92.684822 338.066315,92.244759 327.670837,92.027122 
	C319.733093,91.860954 311.789459,91.976471 303.371216,91.955353 
	C306.510773,83.466446 308.954071,74.345779 315.875305,67.653549 
	C322.864380,60.895691 331.131866,58.625233 340.549347,61.153862 
	C350.169220,63.736847 356.461914,70.007256 358.783142,79.586166 
	C359.753113,83.588882 359.032806,88.001198 358.965454,92.628250 
z"/>
<path fill="#6433AF" opacity="1.000000" stroke="none" 
	d="
M395.952454,319.880920 
	C401.752991,313.986359 407.553528,308.091766 413.910065,302.345276 
	C416.651550,302.995728 418.834473,303.920593 421.022949,303.934021 
	C439.893433,304.049866 458.765350,303.945923 477.635590,304.079163 
	C479.758087,304.094147 481.873108,305.173126 483.991577,305.758728 
	C478.234344,311.426270 472.477112,317.093811 465.943665,322.893066 
	C445.241425,323.014832 425.313416,323.140320 405.391266,322.855774 
	C402.231476,322.810669 399.098053,320.918915 395.952454,319.880920 
z"/>
<path fill="#543090" opacity="1.000000" stroke="none" 
	d="
M423.039612,238.349854 
	C427.108032,237.367416 431.323334,236.142654 435.552185,236.093994 
	C454.753967,235.872955 473.959595,235.983398 493.640198,235.966705 
	C499.742554,242.058090 505.368530,248.157364 511.050995,254.606979 
	C490.580811,254.972000 470.053497,254.918045 449.528351,255.103729 
	C447.390106,255.123062 445.264648,256.562775 443.043793,257.725555 
	C436.367157,251.621475 429.779938,245.135300 423.039612,238.349854 
z"/>
<path fill="#3E2C69" opacity="1.000000" stroke="none" 
	d="
M274.592224,154.183472 
	C290.444580,153.626572 306.040924,153.252487 321.639557,153.047348 
	C324.765503,153.006241 327.899902,153.608368 331.436951,153.965164 
	C328.436829,161.567505 325.030212,169.118622 320.983643,176.676514 
	C318.383972,176.454498 316.424805,176.032852 314.464417,176.027252 
	C298.028809,175.980255 281.592957,176.009628 265.157227,176.015991 
	C268.217133,168.819244 271.277069,161.622482 274.592224,154.183472 
z"/>
<path fill="#3E2C69" opacity="1.000000" stroke="none" 
	d="
M429.946289,171.657959 
	C411.182281,171.966919 392.254913,171.999802 373.327637,171.970123 
	C371.524445,171.967300 369.721832,171.573318 367.541321,171.219482 
	C368.032471,161.603821 372.216583,154.203049 380.405304,149.046692 
	C389.000061,143.634659 403.219238,144.849625 410.414825,151.960022 
	C416.915222,158.383362 423.330292,164.893005 429.946289,171.657959 
z"/>
<path fill="#6E34BF" opacity="1.000000" stroke="none" 
	d="
M239.433411,359.860260 
	C235.663635,359.695251 232.207916,359.077118 228.747482,359.049500 
	C213.779984,358.930084 198.811111,358.983368 183.367203,358.964996 
	C185.690445,352.413177 188.489212,345.870178 192.063324,339.149506 
	C211.509888,338.983521 230.181137,338.995148 248.852356,339.006775 
	C245.816666,345.897461 242.780975,352.788177 239.433411,359.860260 
z"/>
<path fill="#7035C4" opacity="1.000000" stroke="none" 
	d="
M440.891113,349.000183 
	C435.509796,354.619019 430.128479,360.237854 424.034973,365.878906 
	C420.699463,365.601257 418.077362,365.055267 415.452576,365.041992 
	C399.691223,364.962280 383.929230,365.004944 368.167450,365.006592 
	C366.761566,359.679260 367.720612,354.516510 370.049438,349.184692 
	C394.193573,348.983826 417.542328,348.992004 440.891113,349.000183 
z"/>
<path fill="#492E7D" opacity="1.000000" stroke="none" 
	d="
M105.403717,214.890350 
	C102.503082,214.694611 99.897232,214.059692 97.288513,214.047668 
	C78.542328,213.961182 59.795494,214.022980 41.049053,213.970932 
	C38.924339,213.965042 36.800777,213.544571 34.314774,213.107819 
	C38.422119,208.339645 42.891373,203.780014 47.650219,199.051529 
	C50.193264,199.253204 52.445309,199.935135 54.700382,199.945282 
	C73.789742,200.031235 92.879723,199.972931 111.969330,200.025314 
	C114.094719,200.031143 116.218964,200.457581 118.706955,200.899017 
	C114.612511,205.652573 110.154839,210.196045 105.403717,214.890350 
z"/>
<path fill="#6E34BF" opacity="1.000000" stroke="none" 
	d="
M441.025818,348.688812 
	C417.542328,348.992004 394.193573,348.983826 370.369385,348.967712 
	C373.691528,344.044647 377.489105,339.129608 381.983582,334.235260 
	C385.150421,334.504791 387.619751,334.961365 390.090485,334.969330 
	C408.918182,335.030029 427.746552,334.947754 446.573517,335.079651 
	C448.716248,335.094635 450.851624,336.158295 452.990417,336.735657 
	C449.047119,340.616272 445.103821,344.496857 441.025818,348.688812 
z"/>
<path fill="#6933B6" opacity="1.000000" stroke="none" 
	d="
M248.998474,338.669739 
	C230.181137,338.995148 211.509888,338.983521 192.362778,338.963562 
	C194.201492,333.524078 196.516083,328.092896 199.455444,322.333496 
	C218.690399,322.108582 237.300552,322.211975 255.910706,322.315338 
	C253.655319,327.654449 251.399948,332.993561 248.998474,338.669739 
z"/>
<path fill="#6933B6" opacity="1.000000" stroke="none" 
	d="
M453.309082,336.665833 
	C450.851624,336.158295 448.716248,335.094635 446.573517,335.079651 
	C427.746552,334.947754 408.918182,335.030029 390.090485,334.969330 
	C387.619751,334.961365 385.150421,334.504791 382.286682,334.099243 
	C386.379028,329.356415 390.865143,324.770325 395.651855,320.032562 
	C399.098053,320.918915 402.231476,322.810669 405.391266,322.855774 
	C425.313416,323.140320 445.241425,323.014832 465.643860,323.032715 
	C461.956085,327.559082 457.791901,332.077515 453.309082,336.665833 
z"/>
<path fill="#432D73" opacity="1.000000" stroke="none" 
	d="
M264.988464,176.329071 
	C281.592957,176.009628 298.028809,175.980255 314.464417,176.027252 
	C316.424805,176.032852 318.383972,176.454498 320.708252,176.891144 
	C319.110016,181.857956 317.147217,186.616913 315.005951,191.693390 
	C303.890045,191.674744 292.954407,191.250870 282.014648,191.032440 
	C274.374725,190.879898 266.729156,191.008621 258.629272,191.014648 
	C260.388153,186.225784 262.603943,181.433975 264.988464,176.329071 
z"/>
<path fill="#4E2F87" opacity="1.000000" stroke="none" 
	d="
M296.391541,232.837814 
	C293.655273,232.693100 291.208496,232.065414 288.757935,232.050293 
	C272.789001,231.951691 256.819275,231.985977 240.374481,231.968018 
	C242.059799,226.753952 244.220398,221.548660 246.663300,216.117920 
	C249.193863,216.260941 251.439896,216.931763 253.690750,216.948349 
	C267.268219,217.048355 280.847076,216.953293 294.424774,217.038116 
	C297.046570,217.054504 299.665161,217.578644 302.697021,217.974152 
	C300.965607,222.932541 298.822449,227.785339 296.391541,232.837814 
z"/>
<path fill="#583098" opacity="1.000000" stroke="none" 
	d="
M228.655243,256.106201 
	C231.027374,256.260071 233.103806,256.929840 235.186005,256.948181 
	C246.923782,257.051605 258.664062,256.906372 270.401093,257.044769 
	C275.006989,257.099091 279.606781,257.668854 284.637299,258.037659 
	C283.103607,262.502777 281.141998,266.934143 278.549744,271.684753 
	C259.238678,271.989227 240.558243,271.974457 221.877808,271.959717 
	C224.039261,266.746887 226.200729,261.534088 228.655243,256.106201 
z"/>
<path fill="#7434CB" opacity="1.000000" stroke="none" 
	d="
M368.113922,365.380646 
	C383.929230,365.004944 399.691223,364.962280 415.452576,365.041992 
	C418.077362,365.055267 420.699463,365.601257 423.732574,366.021362 
	C418.340088,371.446106 413.199036,377.850281 406.594910,381.821167 
	C393.686798,389.582489 373.916931,385.501923 368.113922,365.380646 
z"/>
<path fill="#5F32A5" opacity="1.000000" stroke="none" 
	d="
M432.591858,283.104797 
	C435.842102,283.307007 438.794006,283.938721 441.748932,283.953339 
	C460.341644,284.045532 478.935272,283.959198 497.527924,284.060028 
	C499.561005,284.071045 501.589691,284.898102 503.836914,285.664978 
	C500.937988,288.906677 497.822632,291.830048 493.933105,294.888794 
	C471.959564,295.016205 450.759766,295.071625 429.561646,294.906219 
	C427.348145,294.888977 425.144836,293.564941 422.936798,292.847229 
	C426.056152,289.647797 429.175537,286.448364 432.591858,283.104797 
z"/>
<path fill="#3E2C69" opacity="1.000000" stroke="none" 
	d="
M145.882721,168.612442 
	C127.533669,168.682877 109.245232,168.318741 90.955559,168.034286 
	C87.185669,167.975632 83.411156,168.213974 79.296967,168.112671 
	C83.427177,163.351578 87.899208,158.793243 93.019150,154.269012 
	C110.708595,154.399017 127.750137,154.494919 144.791672,154.590805 
	C145.175415,159.129227 145.559174,163.667664 145.882721,168.612442 
z"/>
<path fill="#5C319F" opacity="1.000000" stroke="none" 
	d="
M221.588959,272.158691 
	C240.558243,271.974457 259.238678,271.989227 278.377014,272.005432 
	C276.788513,276.561890 274.742096,281.116913 272.007355,285.706604 
	C269.033783,285.494293 266.749542,285.044342 264.463135,285.032928 
	C248.264984,284.951935 232.066391,284.960815 215.867950,284.941071 
	C217.678665,280.746613 219.489380,276.552155 221.588959,272.158691 
z"/>
<path fill="#6433AF" opacity="1.000000" stroke="none" 
	d="
M256.184906,322.140686 
	C237.300552,322.211975 218.690399,322.108582 199.622147,322.007324 
	C201.054474,317.888428 202.944901,313.767426 205.457489,309.324890 
	C224.761322,309.014069 243.442993,309.024780 262.124664,309.035522 
	C260.236145,313.345703 258.347626,317.655853 256.184906,322.140686 
z"/>
<path fill="#6232AA" opacity="1.000000" stroke="none" 
	d="
M262.422729,308.835083 
	C243.442993,309.024780 224.761322,309.014069 205.621567,309.004700 
	C206.876434,304.789276 208.589401,300.572510 210.993729,296.306396 
	C213.974045,296.504578 216.262024,296.955231 218.552109,296.966248 
	C232.459549,297.033234 246.367798,296.953613 260.274963,297.047028 
	C262.532410,297.062195 264.785736,297.696228 267.040955,298.044220 
	C265.600922,301.574371 264.160858,305.104492 262.422729,308.835083 
z"/>
<path fill="#5F32A5" opacity="1.000000" stroke="none" 
	d="
M267.330719,297.831238 
	C264.785736,297.696228 262.532410,297.062195 260.274963,297.047028 
	C246.367798,296.953613 232.459549,297.033234 218.552109,296.966248 
	C216.262024,296.955231 213.974045,296.504578 211.291031,296.102051 
	C212.356567,292.415039 213.816193,288.883057 215.571884,285.146057 
	C232.066391,284.960815 248.264984,284.951935 264.463135,285.032928 
	C266.749542,285.044342 269.033783,285.494293 271.713623,285.895691 
	C270.612335,289.906158 269.116425,293.762207 267.330719,297.831238 
z"/>
<path fill="#6232AA" opacity="1.000000" stroke="none" 
	d="
M422.637878,293.002472 
	C425.144836,293.564941 427.348145,294.888977 429.561646,294.906219 
	C450.759766,295.071625 471.959564,295.016205 493.634674,295.030884 
	C490.950867,298.566650 487.791290,302.095673 484.311646,305.691711 
	C481.873108,305.173126 479.758087,304.094147 477.635590,304.079163 
	C458.765350,303.945923 439.893433,304.049866 421.022949,303.934021 
	C418.834473,303.920593 416.651550,302.995728 414.211365,302.195984 
	C416.750732,298.984924 419.544830,296.071320 422.637878,293.002472 
z"/>
<path fill="#382B5E" opacity="1.000000" stroke="none" 
	d="
M144.761871,154.218964 
	C127.750137,154.494919 110.708595,154.399017 93.304321,154.093231 
	C98.506386,149.003510 103.396614,142.821365 109.777168,139.516434 
	C122.845642,132.747360 139.870941,139.450821 144.761871,154.218964 
z"/>
<path fill="#27273F" opacity="1.000000" stroke="none" 
	d="
M358.216644,94.968170 
	C358.175293,94.840759 358.347778,94.593636 358.699280,94.199471 
	C358.797363,94.352615 358.648132,94.617958 358.216644,94.968170 
z"/>
</svg>